<?xml version="1.0" encoding="utf-8"?>
<!-- Generator: Adobe Illustrator 19.0.0, SVG Export Plug-In . SVG Version: 6.00 Build 0)  -->
<svg version="1.1" id="layer" xmlns="http://www.w3.org/2000/svg"
	xmlns:xlink="http://www.w3.org/1999/xlink" x="0px" y="0px"
	viewBox="-153 -46 652 652" style="enable-background:new -153 -46 652 652;" xml:space="preserve">
<style type="text/css">
	.st0{fill:#6F2568;}
	.st1{fill:#67246D;}
	.st2{fill:#002337;}
</style>
<path class="st0" d="M27.2,211.1c1.5-15.5,0.1-46.6-2.7-63.4c-0.6-3.9-2.9-8.7-9-10.3c-15.6-4-36.2-6.2-58.2-6.4
	c-1.9,17.3-3.5,41.4-3.5,68.5l0,10.4l0,0.6l2.3,0.2c1.1,0.1,1.5,0.8,1.7,2c0.2,1.2,0.3,2.7,0.3,2.7S0,215.2,27.2,211.1 M-57.3,232.8
	l-2.3-0.2c-1.1-0.1-1.6-0.8-1.7-2c-0.1-1.2-0.3-2.7-0.3-2.7l0,0c-18.6,0-39.7,0.1-66.8,4.2c3.7,23.1,27.7,75.5,66.3,97.9
	c1.9-17.3,4.9-59.6,4.9-86.7l0-9.8L-57.3,232.8L-57.3,232.8 M-41.9,227.8c18.6,0,39.9,0.1,67,4.2c-3.7,23.1-27.7,75.5-66.3,97.9
	c-1.9-17.3-5.1-59.6-5.1-86.7l0.1-10l0-0.4l2.2-0.2c1.1-0.1,1.6-0.8,1.7-2C-42.1,229.4-41.9,227.8-41.9,227.8L-41.9,227.8"/>
<path class="st1" d="M-93,180.9c-0.1,0.2,0,0.6,0.1,0.7c0.2,0,0.5-0.1,0.8-0.3c0.2-0.2,0.3-0.3,0.6-0.5
	C-91.8,180.9-93,180.9-93,180.9"/>
<path class="st0" d="M-84.4,192.2c0,0.7-1,1.1-1.2,1.5c-0.1,0.2-0.2,0.3-0.2,0.4c-0.1-0.5,0.1-0.9,0.1-1.2c0-0.4-0.3-0.6-0.6-0.6
	c-0.5,0-1.9,1.4-1.1,3.6c0-0.8,0.2-1.3,0.3-1.5c0.1-0.1,0.2-0.4,0.2-0.7c0.3,0.6,0.3,0.8,0.3,1.2c0,1-0.6,1.1-0.3,1.9
	c0.1,0.2,0.1,0.4,0.2,0.6c0-0.3,0.1-0.6,0.1-0.9c0-0.2,0.4-0.7,0.4-0.9c0-0.2,0.1-0.4,0-0.6c0.3,0.4,0.5,0.7,0.5,1.3
	c0,0.7-0.3,1.1-0.4,1.3c-0.1,0.2-0.2,0.4-0.2,0.8c-0.2,1.6-0.9,2.3-1.8,2.3c-0.6,0-1-0.1-1.4-0.4c0,2-2.1,1.9-2.1,3.2
	c0,0.4,0.2,0.8,0.5,1.1c0.2,0.2,1.1,0.6,1.4,1c-0.5,0-1,0.2-1.2,0.6c0.8,0.4,0.7,0.9,0.8,1.5c-0.7-0.4-1.1-0.2-1.3,0
	c-0.2,0.3-0.1,0.6-0.4,1c-0.1-0.3-0.3-0.6-0.6-0.6c-0.3,0-1,0.6-1,0.8c0,0.6-0.3,0.8-0.7,0.8c-0.3,0.4-0.3,0.6-0.3,1
	c-0.3-0.3-0.3-0.5-0.2-1.1c-0.3-0.1-0.3-0.5-0.2-0.7l-0.1-0.1c-0.2,0.2-0.4,0.4-0.8,0.2c-0.2,0.1-0.4,0.4-0.4,0.7
	c-0.1-0.8,0.1-1.1,0.3-1.3c-0.1-0.2,0-0.6,0.3-0.7c0-0.1,0-0.1,0-0.2c-0.3,0-0.5-0.1-0.6-0.3c-0.3-0.1-0.6,0.3-0.6,0.5
	c0-0.5,0.3-1,0.6-1.1c0.3-0.6,0.8-0.7,1.2-0.4c0.2,0.2,0.6,0.4,1.1,0.4c0.4,0,0.8-0.4,1-0.6c0.1-0.2,0.1-0.2,0.2-0.3
	c0.1-0.2,0.3-0.5-0.2-1.2c-0.4-0.5-1.3-1.5-1.3-2.2c0-1.1,0.4-1.8,0.9-2.3c-0.2,0-0.1,0-0.4,0c-0.7,0-0.7-0.5-1.4-0.5
	c-0.5,0-0.8,0.5-0.8,1c0,0.5,0.1,0.6,0.2,0.9c0.2,0.4,0.3,0.6,0.2,1.1c-0.4-0.4-0.9-0.6-1.4-0.1c-0.2,0.5-0.3,0.8-0.6,1
	c0-0.5-0.9-1.2-1.6-0.4c-0.1,0.2-0.1,0.6-0.7,0.6c-0.3,0-0.3-0.1-0.4-0.1c-0.2,0.2-0.4,0.4-0.5,0.7c-0.1-0.4,0-0.8,0.2-1
	c-0.1-0.2,0-0.7,0.2-0.8c-0.1-0.1,0,0-0.1-0.1c-0.3,0.3-0.8,0.3-1.1,0c-0.2,0-0.4,0.2-0.6,0.6c-0.1-0.5,0.2-1,0.4-1.1
	c0-0.4,0.4-0.7,0.9-0.5c0-0.1,0-0.1,0-0.2c0.1-0.1,0,0,0,0c-0.1-0.1-0.5-0.1-0.5-0.7c-0.3-0.1-0.5,0-0.7,0.2
	c0.2-0.5,0.6-0.7,0.8-0.7c0.1-0.2,0.4-0.3,0.6-0.3c0.3,0,0.5,0.2,0.6,0.4c0.3,0.6,1,0.8,1.7,0.8c0.3,0,0.6-0.3,0.6-0.7
	s-0.7-1.7-0.7-2.3c0-0.6,1-1.7,1.6-1.7c2,0,2.4,0.9,2.8,0.9c0.6,0,0.7-0.1,0.8-0.2c-0.9-1.3-1.5-1.2-2.4-1.9
	c-0.4-0.3-0.7-0.9-0.7-1.4c-0.5,0.1-1.1,0.9-1.3,1.4c-0.1-0.2-0.3-0.4-0.5-0.4c-0.4,0-0.7,0.6-0.9,1.2c-0.1-0.6-0.5-1.2-1.1-1.2
	c-0.4,0-0.8,0.2-0.9,0.4c-0.1,0.3-0.4,0.6-1,0.5c-0.2,0.1-0.4,0.2-0.5,0.8c-0.2-0.8,0-0.9,0.1-1.1c-0.1-0.5,0.1-0.7,0.2-0.9
	l-0.1-0.1c-0.3,0.1-0.7,0.1-0.8-0.2c-0.3,0-0.4,0-0.7,0.5c0.1-0.5,0.3-0.9,0.6-1c0.1-0.3,0.5-0.4,0.8-0.4c0-0.1,0.1-0.1,0.1-0.2
	c-0.2-0.1-0.4-0.4-0.3-0.7c-0.2-0.3-0.5-0.1-0.7,0c0.4-0.4,0.8-0.6,1.1-0.4c0.7-0.2,0.9,0.1,1,0.5c0.1,0.5,0.7,0.5,1.4,0.5
	c1.5,0,3.9-1.5,3.7-2.8c-0.4-0.1-0.4-0.1-0.7-0.1c-0.8,0-1.8,1.1-2.6,1.1c0.4-0.5,0.1-1,0.4-1.4c-0.4,0-0.9,0.3-1.7,0.2
	c0.3-0.2,0.5-0.8,0.5-1c0-0.2,0-0.7-0.9-0.7c-0.1,0-0.3,0.1-0.5,0.1c-0.2,0-0.8-0.1-0.8-0.6c-0.3-0.1-0.5,0-0.8,0.3
	c0.1-0.4,0.7-0.8,0.8-0.8c0.1-0.3,0.4-0.4,0.5-0.4c0-0.1,0,0,0-0.2c-0.3,0-0.7-0.2-0.7-0.7c-0.2-0.2-0.3-0.3-0.8-0.1
	c0.6-0.5,0.8-0.4,1-0.3c0.4-0.4,0.8-0.2,0.9,0c0.1-0.1,0.1-0.1,0.1-0.1c-0.1-0.3,0-0.7,0.1-0.8c0-0.4-0.2-0.5-0.5-0.6
	c0.7,0,0.9,0.2,1.1,0.4c0.4,0.1,0.6,0.4,0.6,0.7c0,0.7-0.6,1.1,0.6,1.9c0.4,0.2,0.9,0.4,1.5,0.6c0.6,0.2,1.3,0.5,1.5,0.5
	c-0.2-0.4-0.1-0.7-0.5-1.1c0.4,0,0.9,0.1,1.3,0.2c-0.1-0.5,0-0.5-0.3-0.9c0.3,0,0.7,0.1,0.9,0.1c1.4,0.2,1.5-0.6,1.7-1.6
	c-0.5,0-1.3,0.2-2.1,0.7c0.1-0.3,0-0.5,0-0.8c0-0.5,0.3-0.6,0.5-0.6c0.1,0,0.3,0,0.5,0c0.3,0,0.8-0.4,0.5-1.2
	c-0.1-0.4-0.4-0.6-0.6-0.5c-0.2,0.1-0.3,0.1-0.6,0.2c-0.2,0.1-0.3,0.3-0.4,0.6c0-0.1-0.1-0.5-0.2-0.6c0-0.1-0.1-0.2-0.2-0.4
	c0-0.1,0-0.1-0.1-0.2c-0.2-0.4,0.1-0.7,0.4-0.8c0.3-0.1,0.7-0.2,0.9-0.3c0.5-0.2,0.6-0.4,0.8-0.7c0.1-0.3,0.2-0.4,0.6-0.4
	c0.1,0,0.7,0,0.9,0c0.7,0,1.5-0.6,1.2-1.3c0.5,0.1,0.7,1,0.6,1.3c0.2,0,1-0.2,1.2-0.3c0,0.6-0.4,1.3-0.7,1.5c0.4,0,1,0,1.2-0.2
	c-0.1,0.4-0.5,1.4-0.8,1.5c0.6,0.2,1.1,0.6,1.4,1.5c-0.5-0.2-0.8,0-1.2,0c0.9,1.1,1.2,2.9,1.5,3.3c-0.2-0.1-0.7-0.4-1.1-0.6
	c0.4,0.9-0.2,1.9-0.1,2.4c-0.3-0.2-0.6-0.4-0.8-0.6c-0.1,0.4-0.4,1.1-0.3,2.1c-0.2-0.3-0.6-0.5-0.8-0.6c-0.3,0.5-0.5,0.9-0.5,2.2
	c0,1.8,0.8,3.6,1.1,4.3c0.5,1.1,0.6,2,0.7,2.3c0.2,0.7,0.6,1.2,1.3,1.2c0.6,0,1.1-0.6,1.1-1.3c0-1.3-1.5-2.2-1.5-4.5
	c0-1.5,1.1-2.3,1.1-3.3c0-0.9-0.7-0.3-1.2-0.7c0.7-0.2,1.1-1,1.7-1c0.5,0,0.7,0.4,0.7,0.7c0,0.4-0.2,0.9-0.3,1.1
	c0.6-0.6,0.9-1.5,0.9-1.9c0-0.7-0.8-1.4-0.6-2.7c0-0.2,0-0.1,0.1-0.3c0.3,1.4,2.1,1.8,2.1,3.2c0,1.3-1,1.1-1.6,2
	C-85.1,191.3-84.4,191.4-84.4,192.2 M-96.7,182.5c-0.2,0.7-0.2,1.5,0.7,1.5c0.7,0,1.8-0.6,2.1-0.7l0.1,0.2c-0.2,0.1-1.7,1.4-2.9,1.4
	c-0.7,0-0.9-0.4-0.9-0.9C-97.7,183.4-97.2,183.2-96.7,182.5z M-93.4,170.7l-37.8,40.4c27,4.1,50.6,4.4,69.2,4.4h0.3
	c0,0,0.2-1.4,0.3-2.7c0.1-1.3,0.6-1.9,1.7-2l2.3-0.2v0L-93.4,170.7z"/>
<path class="st0" d="M-65.9,151.4c0,0.8-1.1,1.2-1.3,1.6c-0.1,0.2-0.2,0.3-0.2,0.5c-0.1-0.5,0.1-0.9,0.1-1.3c0-0.4-0.3-0.6-0.6-0.6
	c-0.6,0-2.1,1.5-1.1,3.8c-0.1-0.8,0.2-1.4,0.3-1.5c0.1-0.2,0.2-0.5,0.2-0.7c0.3,0.6,0.4,0.9,0.4,1.3c0,1-0.7,1.2-0.4,2
	c0.1,0.2,0.1,0.4,0.2,0.6c0-0.4,0.1-0.7,0.1-0.9c0-0.2,0.4-0.7,0.5-0.9c0-0.2,0.1-0.4,0-0.6c0.3,0.4,0.5,0.8,0.5,1.4
	c0,0.8-0.3,1.2-0.4,1.4c-0.1,0.2-0.2,0.4-0.2,0.8c-0.2,1.7-0.9,2.5-1.9,2.5c-0.6,0-1.1-0.1-1.5-0.4c0,2.2-2.2,2-2.2,3.4
	c0,0.4,0.2,0.9,0.5,1.1c0.2,0.3,1.1,0.6,1.5,1.1c-0.5,0-1,0.2-1.3,0.6c0.8,0.4,0.8,0.9,0.9,1.6c-0.8-0.4-1.1-0.2-1.3,0
	c-0.2,0.3-0.1,0.6-0.4,1.1c-0.1-0.3-0.3-0.6-0.7-0.6s-1,0.7-1,0.9c0,0.6-0.3,0.8-0.8,0.9c-0.4,0.4-0.3,0.6-0.3,1
	c-0.3-0.3-0.4-0.5-0.2-1.1c-0.4-0.2-0.3-0.5-0.2-0.8l-0.1-0.1c-0.2,0.2-0.4,0.5-0.9,0.2c-0.2,0.1-0.4,0.4-0.5,0.8
	c-0.1-0.9,0.1-1.2,0.3-1.3c-0.1-0.2,0-0.6,0.4-0.8c0-0.1,0-0.1,0-0.2c-0.3,0-0.5-0.1-0.6-0.3c-0.3-0.1-0.6,0.3-0.7,0.5
	c0-0.5,0.4-1,0.6-1.1c0.3-0.7,0.9-0.8,1.2-0.4c0.2,0.2,0.7,0.4,1.1,0.4c0.5,0,0.9-0.4,1-0.6c0.1-0.2,0.1-0.2,0.2-0.3
	c0.1-0.3,0.3-0.6-0.2-1.2c-0.4-0.5-1.3-1.6-1.4-2.3c0-1.2,0.5-1.9,1-2.4c-0.2,0-0.1,0-0.4,0c-0.7,0-0.8-0.5-1.5-0.5
	c-0.5,0-0.8,0.6-0.8,1.1c0,0.5,0.1,0.6,0.2,0.9c0.2,0.4,0.3,0.7,0.2,1.1c-0.4-0.4-1-0.6-1.5-0.2c-0.2,0.6-0.3,0.8-0.6,1.1
	c0-0.5-0.9-1.2-1.7-0.4c-0.1,0.2-0.1,0.7-0.7,0.7c-0.3,0-0.3-0.1-0.4-0.1c-0.2,0.2-0.4,0.5-0.5,0.8c-0.1-0.5,0-0.9,0.2-1.1
	c-0.1-0.2,0-0.7,0.2-0.9c-0.1-0.1,0,0-0.1-0.1c-0.3,0.3-0.9,0.4-1.1,0c-0.2,0-0.4,0.2-0.6,0.7c0-0.5,0.3-1,0.5-1.2
	c0-0.4,0.5-0.7,0.9-0.6c0-0.1,0-0.1,0-0.2c0-0.1,0,0,0,0c-0.1-0.1-0.6-0.1-0.6-0.7c-0.3-0.1-0.5,0-0.7,0.2c0.2-0.5,0.6-0.7,0.9-0.7
	c0.1-0.2,0.5-0.3,0.6-0.3c0.3,0,0.5,0.2,0.6,0.4c0.3,0.6,1.1,0.9,1.8,0.9c0.4,0,0.7-0.3,0.7-0.8c0-0.5-0.7-1.8-0.7-2.5
	c0-0.6,1-1.8,1.7-1.8c2.1,0,2.5,1,3,1c0.6,0,0.7-0.1,0.8-0.3c-1-1.3-1.6-1.3-2.5-2c-0.5-0.4-0.7-0.9-0.8-1.5c-0.6,0.1-1.1,1-1.4,1.5
	c-0.1-0.3-0.3-0.4-0.6-0.4c-0.5,0-0.8,0.7-1,1.2c-0.1-0.6-0.5-1.3-1.1-1.3c-0.4,0-0.8,0.2-0.9,0.4c-0.1,0.3-0.5,0.7-1,0.5
	c-0.2,0.2-0.4,0.2-0.5,0.9c-0.2-0.8,0-1,0.1-1.2c-0.1-0.6,0.1-0.8,0.2-0.9l0-0.1c-0.3,0.1-0.7,0.1-0.9-0.2c-0.3,0-0.4,0-0.7,0.5
	c0.1-0.5,0.3-1,0.6-1.1c0.1-0.3,0.5-0.4,0.8-0.4c0-0.1,0.1-0.1,0.1-0.2c-0.2-0.1-0.4-0.4-0.3-0.8c-0.3-0.3-0.5-0.1-0.8,0
	c0.4-0.5,0.9-0.6,1.2-0.4c0.7-0.3,0.9,0.1,1,0.5c0.1,0.5,0.8,0.6,1.5,0.6c1.6,0,4.1-1.6,3.9-2.9c-0.4-0.1-0.4-0.1-0.7-0.1
	c-0.8,0-1.9,1.2-2.7,1.2c0.4-0.5,0.2-1,0.4-1.4c-0.5,0-0.9,0.3-1.8,0.2c0.3-0.2,0.5-0.9,0.5-1.1c0-0.2,0-0.7-0.9-0.7
	c-0.1,0-0.3,0.1-0.5,0.1c-0.2,0-0.8-0.1-0.8-0.6c-0.3-0.1-0.5,0-0.9,0.3c0.1-0.4,0.7-0.8,0.9-0.9c0.1-0.3,0.4-0.4,0.5-0.4
	c0-0.1,0,0,0-0.2c-0.3,0-0.7-0.2-0.7-0.8c-0.2-0.2-0.4-0.3-0.9-0.1c0.6-0.5,0.9-0.4,1-0.4c0.5-0.4,0.8-0.2,1,0
	c0.1-0.1,0.1-0.1,0.1-0.1c-0.1-0.4,0-0.7,0.1-0.9c0-0.4-0.2-0.5-0.5-0.6c0.7,0,1,0.2,1.2,0.5c0.4,0.1,0.6,0.4,0.7,0.7
	c0,0.7-0.7,1.2,0.7,2c0.4,0.2,1,0.5,1.6,0.7c0.6,0.2,1.3,0.5,1.6,0.5c-0.2-0.4-0.1-0.8-0.5-1.2c0.4,0,1,0.1,1.3,0.2
	c-0.1-0.6,0-0.6-0.3-0.9c0.3,0,0.7,0,0.9,0.1c1.5,0.2,1.5-0.6,1.8-1.7c-0.5,0-1.4,0.2-2.2,0.8c0.1-0.3,0-0.6,0-0.8
	c0-0.5,0.4-0.6,0.5-0.6c0.1,0,0.3,0,0.5,0c0.3,0,0.8-0.4,0.6-1.2c-0.1-0.4-0.4-0.6-0.7-0.5c-0.2,0.1-0.3,0.1-0.6,0.2
	c-0.3,0.1-0.3,0.3-0.4,0.6c0-0.1-0.1-0.5-0.2-0.6c0-0.1-0.1-0.2-0.2-0.4c0-0.1,0-0.1-0.1-0.2c-0.2-0.4,0.1-0.8,0.4-0.8
	c0.3-0.1,0.7-0.2,1-0.3c0.5-0.2,0.7-0.4,0.8-0.7c0.1-0.3,0.2-0.5,0.7-0.5c0.2,0,0.7,0,1,0c0.7,0,1.6-0.7,1.3-1.4
	c0.5,0.1,0.7,1,0.6,1.4c0.2,0,1.1-0.2,1.2-0.3c0,0.6-0.4,1.4-0.7,1.6c0.4,0,1.1,0,1.3-0.2c-0.1,0.5-0.6,1.5-0.9,1.6
	c0.7,0.3,1.1,0.7,1.5,1.6c-0.5-0.2-0.8,0-1.3,0c0.9,1.2,1.3,3.1,1.6,3.5c-0.3-0.1-0.8-0.5-1.1-0.6c0.4,1-0.2,2-0.1,2.5
	c-0.3-0.2-0.7-0.4-0.8-0.7c-0.1,0.4-0.5,1.2-0.3,2.2c-0.3-0.3-0.7-0.5-0.8-0.6c-0.4,0.6-0.6,0.9-0.6,2.4c0,2,0.8,3.8,1.2,4.6
	c0.5,1.1,0.7,2.1,0.8,2.5c0.2,0.8,0.7,1.3,1.3,1.3c0.6,0,1.2-0.6,1.2-1.4c0-1.4-1.6-2.3-1.6-4.8c0-1.6,1.1-2.5,1.2-3.5
	c0-0.9-0.7-0.4-1.3-0.8c0.7-0.2,1.2-1.1,1.8-1c0.6,0,0.7,0.4,0.7,0.7c0,0.4-0.2,1-0.3,1.1c0.6-0.6,0.9-1.5,0.9-2
	c0-0.7-0.9-1.5-0.7-2.8c0-0.2,0-0.2,0.1-0.3c0.3,1.5,2.2,1.9,2.2,3.4c0,1.4-1.1,1.1-1.7,2.1C-66.7,150.4-65.9,150.6-65.9,151.4
	 M-79,141.1c-0.2,0.7-0.2,1.6,0.7,1.6c0.7,0,1.9-0.7,2.2-0.8l0.1,0.3c-0.2,0.1-1.8,1.5-3.1,1.5c-0.7,0-1-0.5-1-0.9
	C-80,142.1-79.5,141.8-79,141.1z M-101.8,153.7c0,0.7-1,1.2-1.2,1.5c-0.1,0.2-0.2,0.3-0.2,0.4c-0.1-0.5,0.1-0.9,0.1-1.2
	c0-0.4-0.2-0.6-0.6-0.6c-0.5,0-2,1.4-1.1,3.7c-0.1-0.8,0.2-1.3,0.3-1.5c0.1-0.1,0.2-0.4,0.2-0.7c0.3,0.6,0.3,0.8,0.3,1.3
	c0,1-0.6,1.2-0.3,1.9c0.1,0.2,0.1,0.4,0.2,0.6c0-0.3,0.1-0.6,0.1-0.9c0-0.2,0.4-0.7,0.4-0.9c0-0.2,0.1-0.4,0-0.6
	c0.3,0.4,0.5,0.7,0.5,1.4c0,0.7-0.3,1.1-0.4,1.4c-0.1,0.2-0.2,0.4-0.2,0.8c-0.2,1.6-0.9,2.4-1.9,2.4c-0.6,0-1-0.1-1.4-0.4
	c0,2.1-2.1,1.9-2.1,3.3c0,0.4,0.2,0.8,0.5,1.1c0.2,0.3,1.1,0.6,1.4,1.1c-0.5,0-1,0.2-1.2,0.6c0.8,0.4,0.8,0.9,0.8,1.5
	c-0.8-0.4-1.1-0.2-1.3,0c-0.2,0.3-0.1,0.6-0.4,1c-0.1-0.3-0.3-0.6-0.6-0.6c-0.3,0-1,0.6-1,0.9c0,0.6-0.3,0.8-0.7,0.9
	c-0.3,0.4-0.3,0.6-0.3,1c-0.3-0.3-0.3-0.5-0.2-1.1c-0.4-0.2-0.3-0.5-0.2-0.8l-0.1-0.1c-0.2,0.2-0.4,0.4-0.8,0.2
	c-0.2,0.1-0.4,0.4-0.4,0.7c-0.1-0.9,0.1-1.1,0.3-1.3c-0.1-0.2,0-0.6,0.4-0.7c0-0.1,0-0.1,0-0.2c-0.3,0-0.5-0.1-0.6-0.3
	c-0.3-0.1-0.6,0.3-0.7,0.5c0-0.5,0.4-1,0.6-1.1c0.3-0.6,0.8-0.8,1.2-0.4c0.2,0.2,0.6,0.4,1.1,0.4c0.4,0,0.9-0.4,1-0.6
	c0.1-0.2,0.1-0.2,0.2-0.3c0.1-0.3,0.3-0.5-0.2-1.2c-0.4-0.5-1.3-1.5-1.3-2.2c0-1.2,0.5-1.8,0.9-2.3c-0.2,0-0.1,0-0.4,0
	c-0.7,0-0.7-0.5-1.4-0.5c-0.5,0-0.8,0.6-0.8,1s0.1,0.6,0.2,0.9c0.2,0.4,0.3,0.7,0.2,1.1c-0.4-0.4-1-0.6-1.4-0.2
	c-0.2,0.6-0.3,0.8-0.6,1c0-0.5-0.9-1.2-1.7-0.4c-0.1,0.2-0.1,0.6-0.7,0.6c-0.3,0-0.3-0.1-0.4-0.1c-0.2,0.2-0.4,0.4-0.5,0.7
	c-0.1-0.5,0-0.9,0.2-1c0-0.2,0-0.7,0.2-0.8c-0.1-0.1,0,0-0.1-0.1c-0.3,0.3-0.9,0.3-1.1,0c-0.2,0-0.4,0.2-0.6,0.6
	c-0.1-0.5,0.2-1,0.4-1.1c0-0.4,0.4-0.7,0.9-0.6c0-0.1,0-0.1,0-0.2c0-0.1,0,0,0,0c-0.1-0.1-0.6-0.1-0.5-0.7c-0.3-0.1-0.5,0-0.7,0.2
	c0.2-0.5,0.6-0.7,0.9-0.7c0.1-0.2,0.4-0.2,0.6-0.2c0.3,0,0.5,0.2,0.6,0.4c0.3,0.6,1,0.8,1.7,0.8c0.3,0,0.6-0.3,0.6-0.8
	s-0.7-1.8-0.7-2.4c0-0.6,1-1.7,1.6-1.7c2,0,2.4,0.9,2.9,0.9c0.6,0,0.7-0.1,0.8-0.3c-0.9-1.3-1.5-1.2-2.4-1.9
	c-0.5-0.3-0.7-0.9-0.8-1.4c-0.5,0.1-1.1,1-1.3,1.5c-0.1-0.2-0.3-0.4-0.5-0.4c-0.4,0-0.8,0.6-1,1.2c-0.1-0.6-0.5-1.2-1.1-1.2
	c-0.4,0-0.8,0.2-0.9,0.4c-0.1,0.3-0.4,0.6-1,0.5c-0.2,0.1-0.4,0.2-0.5,0.9c-0.2-0.8,0-1,0.1-1.2c-0.1-0.5,0.1-0.7,0.2-0.9l0-0.1
	c-0.3,0.1-0.7,0.1-0.8-0.2c-0.3,0-0.4,0-0.7,0.5c0.1-0.5,0.3-0.9,0.6-1.1c0.1-0.3,0.5-0.4,0.8-0.4c0-0.1,0.1-0.1,0.1-0.2
	c-0.2-0.1-0.4-0.4-0.3-0.7c-0.2-0.3-0.5-0.1-0.7,0c0.4-0.4,0.8-0.6,1.2-0.4c0.7-0.2,0.9,0.1,1,0.5c0.1,0.5,0.8,0.5,1.4,0.5
	c1.5,0,3.9-1.6,3.8-2.8c-0.4-0.1-0.4-0.1-0.7-0.1c-0.8,0-1.8,1.1-2.6,1.1c0.4-0.5,0.2-1,0.4-1.4c-0.4,0-0.9,0.3-1.7,0.2
	c0.3-0.2,0.5-0.8,0.5-1.1c0-0.2,0-0.7-0.9-0.7c-0.1,0-0.3,0.1-0.5,0.1c-0.2,0-0.8-0.1-0.8-0.6c-0.3-0.1-0.5,0-0.8,0.3
	c0.1-0.4,0.7-0.8,0.9-0.8c0.1-0.3,0.4-0.4,0.5-0.4c0-0.1,0,0,0-0.2c-0.3,0-0.7-0.2-0.7-0.7c-0.2-0.2-0.4-0.3-0.8-0.1
	c0.6-0.5,0.8-0.4,1-0.3c0.4-0.4,0.8-0.2,0.9,0c0.1-0.1,0.1-0.1,0.1-0.1c-0.1-0.4,0-0.7,0.1-0.9c0-0.4-0.2-0.5-0.5-0.6
	c0.7,0,0.9,0.2,1.2,0.5c0.4,0.1,0.6,0.4,0.6,0.7c0,0.7-0.7,1.2,0.6,1.9c0.4,0.2,1,0.5,1.5,0.6c0.6,0.2,1.3,0.5,1.6,0.5
	c-0.2-0.4-0.1-0.8-0.5-1.1c0.4,0,0.9,0.1,1.3,0.2c-0.1-0.6,0.1-0.6-0.3-0.9c0.3,0,0.7,0.1,0.9,0.1c1.5,0.2,1.5-0.6,1.8-1.6
	c-0.5,0-1.3,0.2-2.1,0.8c0.1-0.3,0-0.5,0-0.8c0-0.5,0.4-0.6,0.5-0.6c0.1,0,0.3,0,0.5,0c0.3,0,0.8-0.4,0.6-1.2
	c-0.1-0.4-0.4-0.6-0.6-0.5c-0.2,0.1-0.3,0.1-0.6,0.2c-0.3,0.1-0.3,0.3-0.4,0.6c0-0.1-0.1-0.5-0.2-0.6c0-0.1-0.1-0.2-0.2-0.4
	c0-0.1,0-0.1-0.1-0.2c-0.2-0.4,0.1-0.7,0.4-0.8c0.3-0.1,0.7-0.2,0.9-0.3c0.5-0.2,0.7-0.4,0.8-0.7c0.1-0.3,0.2-0.4,0.6-0.4
	c0.1,0,0.7,0,0.9,0c0.7,0,1.5-0.6,1.2-1.3c0.5,0.1,0.7,1,0.6,1.3c0.2,0,1-0.2,1.2-0.3c0,0.6-0.4,1.3-0.7,1.5c0.4,0,1,0,1.2-0.2
	c-0.1,0.4-0.5,1.4-0.8,1.5c0.7,0.3,1.1,0.6,1.4,1.5c-0.5-0.2-0.8,0-1.2,0c0.9,1.2,1.2,2.9,1.5,3.4c-0.2-0.1-0.7-0.4-1.1-0.6
	c0.4,1-0.2,1.9-0.1,2.4c-0.3-0.2-0.6-0.4-0.8-0.7c-0.1,0.4-0.5,1.1-0.3,2.1c-0.2-0.3-0.6-0.5-0.8-0.6c-0.3,0.5-0.5,0.9-0.5,2.3
	c0,1.9,0.8,3.7,1.1,4.4c0.5,1.1,0.7,2,0.7,2.4c0.2,0.7,0.6,1.2,1.3,1.2c0.6,0,1.1-0.6,1.1-1.4c0-1.4-1.5-2.2-1.5-4.6
	c0-1.6,1.1-2.4,1.1-3.4c0-0.9-0.7-0.3-1.3-0.7c0.7-0.1,1.1-1,1.7-1c0.6,0,0.7,0.4,0.7,0.7c0,0.4-0.2,0.9-0.3,1.1
	c0.6-0.6,0.9-1.5,0.9-1.9c0-0.7-0.8-1.4-0.6-2.7c0-0.2,0-0.1,0.1-0.3c0.3,1.4,2.1,1.8,2.1,3.3c0,1.4-1.1,1.1-1.7,2
	C-102.5,152.7-101.8,152.9-101.8,153.7z M-114.3,143.8c-0.2,0.7-0.2,1.6,0.7,1.6c0.7,0,1.8-0.6,2.1-0.8l0.1,0.2
	c-0.2,0.1-1.7,1.4-3,1.5c-0.7,0-0.9-0.5-0.9-0.9C-115.3,144.7-114.8,144.5-114.3,143.8z M-60.8,131c-22,0.2-42.7,2.6-58.2,6.4
	c-6.1,1.5-8.4,6.4-9,10.3c-1.9,11-4.3,32.8-3.5,55.2c3.7-3.9,38.3-41,38.3-41l35.9,39.5C-57.2,174.3-58.9,148.3-60.8,131z"/>
<path class="st2" d="M91.4,336c2.6,0,5.6,0,8.8-0.3v2.1c0,0-0.5-0.1-1.4-0.1c-5.9,0-5.9,3.9-5.9,9.6v25.7c0,2.7-0.1,5.2-0.5,7.4
	c-2.3,12.5-11,15.8-20.1,15.8c-12,0-19.3-6.7-21.3-16.1c-0.3-1.5-0.6-4.5-0.6-8.1v-26.3c0-6.1-1-7.9-7.7-8v-2
	c3.8,0.3,7.7,0.4,11.8,0.4c4.2,0,8.1-0.1,11.8-0.4v2c-0.4,0-0.8,0-1.2,0c-5.6,0-6.5,3-6.5,8v27.7c0,3.2,0.1,6,0.8,8.4
	c1.9,7.1,6.8,11.3,14.3,11.3c9.1,0,14.7-4,16.4-13.1c0.4-2,0.4-4.2,0.4-6.7v-26.1c0-7.4-0.4-9.5-7.2-9.5v-2.1
	C85.7,335.9,88.4,336,91.4,336 M125.4,355.2c7.1,0,11.7,4,11.7,11.6c0,0.3,0,1.1,0,2.2v18.3c0,0.6,0,1.1,0,1.2
	c0,3.5,1.6,4.5,5.8,4.6v1.8c-3.6-0.3-6.6-0.4-9.2-0.4c-2.4,0-5.5,0.1-9.3,0.4v-1.8c4.1-0.1,5.8-1.1,5.8-4.4c0-0.1,0-0.6,0-1.4v-20
	c0-6.3-2.5-9.3-7.5-9.3c-5.4,0-10.1,5.3-10.1,12.7v16.7c0,0.6,0,1.1,0,1.2c0,3.5,1.6,4.5,5.8,4.6v1.8c-3.6-0.3-6.6-0.4-9.2-0.4
	c-2.4,0-5.5,0.1-9.3,0.4v-1.8c4.1-0.1,5.7-1.1,5.7-4.4c0-0.1,0.1-0.6,0.1-1.4v-21.2c0-5.1-0.7-6.8-5-6.8c-0.2,0-0.5,0-0.7,0v-1.8
	c3.1,0,6.7-1.2,11.2-3.4c0.6,1.6,1,3.8,1.1,9.1C112.9,362,116.5,355.2,125.4,355.2 M159,336.6c0,2.5-1.8,4.5-4.2,4.5
	c-2.3,0-4.1-2-4.1-4.5c0-2.5,1.8-4.6,4.1-4.6C157.1,332,159,334.1,159,336.6 M159.2,387.3c0,0.6,0,1.1,0,1.2c0,3.4,1.5,4.4,5.4,4.6
	v1.8c-3-0.3-6.1-0.4-9-0.4c-2.9,0-5.8,0.2-8.7,0.4v-1.8c3.8-0.2,5.3-1.2,5.3-4.4c0-0.1,0-0.6,0-1.4v-19.8c0-0.8,0-1.5,0-2.2
	c0-4.3-0.2-5.9-4.4-5.9c-0.2,0-0.4,0-0.6,0v-1.8c3.5-0.4,7.4-1.5,12-3.4C159.2,354.3,159.2,387.3,159.2,387.3z M173.4,356.4
	c2.6,0,6.1-0.1,8.7-0.4v1.9c-3,0-4.2,0.4-4.2,2.5c0,1.1,0.5,3.3,1.8,6.8l7.4,19l3.5-10.1c2.7-7.9,4.6-12.9,4.6-15.2c0-2-1.4-3-4.2-3
	V356c1.9,0.2,4.4,0.4,6.3,0.4c1.7,0,4.7-0.2,6.7-0.4v1.9c-0.1,0-0.5,0-0.5,0c-4.2,0-5.3,3.1-7.6,9.4l-10.3,28.4h-1.8l-13-33.8
	c-1-2.6-2.3-4.1-6.3-4.1V356C167.5,356.3,170.9,356.4,173.4,356.4 M230,366.2c0-5.9-3.4-9.3-7.8-9.3c-5.1,0-9.1,4.2-9.9,11.3h17.5
	C229.9,367,230,366.3,230,366.2 M211.7,370.8c-0.2,1.9-0.2,3.3-0.2,4.4c0,10.6,5.4,17.6,12.8,17.6c4.2,0,7-1.7,10.3-5.8l1.4,1.7
	c-3.3,5.1-7.9,7.6-14,7.6c-11,0-18.2-8.7-18.2-19.8c0-11.2,7.5-21.3,18.5-21.3c8.7,0,14.9,6.2,14.9,14.9c0,0.3,0,0.5,0,0.8
	L211.7,370.8L211.7,370.8z M264.5,355.7c4.1,0,6.5,1.9,6.5,4.7c0,2.2-1.2,3.5-2.8,3.5c-3.6,0-1.8-5.1-6.2-5.1
	c-4.4,0-8.1,4.7-8.1,11.9v16.7c0,0.6,0,1.1,0,1.2c0,3.5,1.6,4.5,5.7,4.6v1.8c-3.6-0.3-6.7-0.4-9.3-0.4c-2.4,0-5.4,0.1-9.2,0.4v-1.8
	c4.1-0.1,5.8-1.2,5.8-4.4c0-0.1,0-0.6,0-1.4V367c0-5.8-1.3-7.8-5.7-7.8c-0.2,0-0.6,0-0.9,0v-1.8c3.7-0.5,7.5-1.6,11.6-3
	c1,3,1.3,8.3,1.3,9.7C254.8,359.7,258.8,355.7,264.5,355.7 M296.4,360.2l0.1,5.7h-1.6c-0.9-5.1-4.1-8.9-9.7-8.9c-3.5,0-6,2.5-6,5.4
	c0,4.3,2.8,5.2,7.8,7.9c2.4,1.4,4.6,2.4,6.4,3.6c3.3,2.2,5.2,5,5.2,9.5c0,7.6-5,12.8-13.3,12.8c-3.6,0-7.1-1.3-9.7-3.6l-1.1,2.5
	h-1.4c0.1-3.3,0.1-5.2,0.1-5.9c0-1.4-0.1-3.4-0.1-6.2h1.4c1.2,7,5.1,11.1,10.8,11.1c5,0,7.7-3.5,7.7-7.2c0-4.6-2.9-6-8.5-8.9
	c-6.7-3.5-10.7-5.8-10.7-12.4c0-6,5.3-10.7,11.1-10.7c4.3,0,6,0.8,8.8,2.4l1.7-2.2h1.1L296.4,360.2 M316.7,336.6
	c0,2.5-1.8,4.5-4.1,4.5c-2.3,0-4.1-2-4.1-4.5c0-2.5,1.8-4.6,4.1-4.6C314.8,332,316.7,334.1,316.7,336.6 M316.7,387.3
	c0,0.6,0,1.1,0,1.2c0,3.4,1.5,4.4,5.4,4.6v1.8c-3-0.3-5.9-0.4-8.8-0.4c-2.9,0-5.7,0.2-8.7,0.4v-1.8c3.8-0.2,5.3-1.2,5.3-4.4
	c0-0.1,0-0.6,0-1.4v-19.8c0-0.8,0-1.5,0-2.2c0-4.3-0.2-5.9-4.4-5.9c-0.3,0-0.4,0-0.6,0v-1.8c3.5-0.4,7.3-1.5,11.8-3.4
	C316.7,354.3,316.7,387.3,316.7,387.3z M337.4,346.4v9.7h8.9v2.6h-8.9v26.6c0,5.3,1.3,7.9,5,7.9c2.1,0,4.2-1.3,5.8-4l1.3,1.3
	c-1.9,3.8-5.2,5.4-9.3,5.4c-6.5,0-9.7-3.7-9.7-11v-26.1h-3.8v-1.4c3.5-2.3,6.6-6,9.1-10.9L337.4,346.4 M355.9,356.4
	c1.2,0,4.3-0.1,9.2-0.4v1.9c-3.2,0.1-4.7,0.6-4.7,2.9c0,0.5,0.2,1.4,0.6,2.4l8,22.7l7.6-20.3c0.6-1.5,0.8-3.1,0.8-4.4
	c0-2.4-1.2-3.3-4.2-3.4V356c2.4,0.2,4.3,0.4,5.6,0.4c1.6,0,4.3-0.2,6.3-0.4v1.9c-0.1,0-0.2,0-0.2,0c-3.5,0-4,1.9-5.6,6.3l-10.3,27.4
	c-7.4,19.7-10.5,28-14.2,28c-1.3,0-2.5-1-2.5-2.6c0-2.9,2.7-3.6,4.7-4.8c2-1.3,3.7-5.3,7.1-13.8l1.5-3.8l-11.5-30.4
	c-1.4-3.8-1.7-6.4-5.8-6.4V356C351.5,356.3,353.9,356.4,355.9,356.4 M64,291.8c0,12.6,2.6,18.8,14.9,18.8c20,0,28.1-16.7,28.1-43.9
	c0-31.7-10.9-42.1-33.2-42.1c-7.5,0-9.8,0-9.8,7.5V291.8 M39.2,310.9c10.3-0.3,11.9-3,11.9-12.5v-60.9c0-9.5-1.6-12.2-11.9-12.5
	v-3.2c4.7,0.1,9,0.3,12.8,0.3c9.6,0,15.1-0.6,23.5-0.6c17.5,0,29.8,5,37.4,14.7c5.7,7.3,9,17.1,9,30.2c0,14.8-4.1,26.4-11.4,34.5
	c-7.6,8.4-18.5,13-34,13c-7.6,0-15.5-0.4-23.6-0.4c-4.5,0-9,0-13.7,0.3L39.2,310.9L39.2,310.9z M136.6,253.6c2.6,0,6-0.1,9.7-0.3
	v43.2c0,0.1,0,0.1,0,0.4c0,9.3,4,14.1,11.7,14.1c8.5,0,15.7-8.2,15.7-19.7v-26.1c0-1.4,0-2.2,0-2.5c0-4.2-2.6-6.4-8-6.4
	c-0.4,0-0.6,0-1,0v-3c3.9,0.1,7.3,0.3,10.3,0.3c2.6,0,5.8-0.1,9.6-0.3v45c0,0.1,0,0.1,0,0.4c0,7.4,1,12.3,7.2,12.3
	c0.5,0,0.7,0,1.2,0v2.9c-6.1-0.6-10.7-0.5-18.6-0.1l-0.3-10.8c-4.9,8.5-11.4,12.3-20.3,12.3c-14.3,0-18.4-7.6-18.4-21.4v-28.7
	c0-1.4-0.1-2.2-0.1-2.5c0-4.2-2.6-6.4-7.8-6.4c-0.4,0-0.6,0-1,0v-3C130.3,253.4,133.6,253.6,136.6,253.6 M234,252.8
	c6.3,0,9.9,3.8,9.9,7.6c0,3.4-1.9,5.1-4.1,5.1c-6.3,0-3.2-7.9-9.9-7.9c-6.3,0-12.6,6.6-12.6,18.5V302c0,1,0,1.6,0,1.9
	c0,5.5,2.5,7,8.9,7.1v2.9c-5.6-0.4-10.4-0.7-14.4-0.7c-3.7,0-8.6,0.1-14.4,0.7V311c6.3-0.1,8.9-1.8,8.9-6.8c0-0.1,0-1,0-2.2v-31.5
	c0-9-2-12.1-8.8-12.1c-0.4,0-0.9,0-1.4,0v-2.7c5.7-0.8,11.6-1.7,17.9-3.9c1.6,4,2.1,11.8,2.1,14.3
	C218.6,260.4,224.6,252.8,234,252.8 M260.8,264.2c3.8-7.8,11.4-12.1,20-12.1c11.7,0,18.4,6.7,18.4,18c0,0.4,0,1.6,0,3.4V302
	c0,1,0,1.6,0,1.9c0,5.5,2.5,7,8.9,7.1v2.9c-5.6-0.4-10.4-0.7-14.4-0.7c-3.7,0-8.6,0.1-14.4,0.7V311c6.3-0.1,8.9-1.8,8.9-6.8
	c0-0.1,0-1,0-2.2v-31.1c0-9.7-3.9-14.5-11.7-14.5c-8.5,0-15.8,8.2-15.8,19.7V302c0,1,0,1.6,0,1.9c0,5.5,2.5,7,8.9,7.1v2.9
	c-5.6-0.4-10.4-0.7-14.4-0.7c-3.7,0-8.6,0.1-14.4,0.7V311c6.4-0.1,9-1.8,9-6.8c0-0.1,0-1,0-2.2v-72.1c0-6-2.5-8.2-9-8.4V219
	c3.9-0.3,10.5-1.5,19.9-4L260.8,264.2 M322.2,298.8c0,6.4,3.1,11.3,8.7,11.3c8.3,0,14-6,14-12.8v-19.6
	C329.6,284.5,322.2,290.3,322.2,298.8 M344.8,306.2c-2.7,3.2-7.1,8.8-18.6,8.8c-9.4,0-15.6-5.5-15.6-13.8c0-9.1,6.7-14.6,20.4-20.5
	l6.6-2.7c5.7-2.5,7.6-2.3,7.6-7.1v-3c0-8.6-3-13.2-12.3-13.2c-9.7,0-9.9,4.6-10.4,8.4c-0.3,2.4-0.8,5.3-4.9,5.3c-2.4,0-4-2.2-4-5.1
	c0-5.9,6.9-11.4,20.5-11.4c14.5,0,21.4,5.1,21.4,15.8v34.8c0,5.4,1.6,7.6,4.2,7.6c1.7,0,3.1-0.9,4.5-2.9l1.6,1.9
	c-2.6,4.5-6.1,5.9-11,5.9C349.2,315,345.7,311.4,344.8,306.2z M441.5,251.9c12.6,0,18,7.4,18,19.9V302c0,0.7,0,1.2,0,1.9
	c0,5.5,2.5,7,9,7.1v2.9c-5.6-0.4-10.5-0.7-14.4-0.7c-3.7,0-8.6,0.1-14.4,0.7V311c6.3-0.1,8.8-1.8,8.8-6.8c0-0.1,0.1-1,0.1-2.2v-32.2
	c0-8.8-3.7-13.4-10.8-13.4c-8.7,0-14.7,6.9-14.7,19.2V302c0,1,0,1.6,0,1.9c0,5.3,2.5,7,8.7,7.1v2.9c-5.3-0.4-10.1-0.7-14.2-0.7
	c-4.5,0-8.9,0.3-13.8,0.7V311c5.8-0.3,8.3-1.9,8.3-6.8c0-0.1,0-1,0-2.2v-32.2c0-8.6-3.7-13.4-10.8-13.4c-8.6,0-14.7,7.5-14.7,19.9
	V302c0,1,0,1.6,0,1.9c0,5.5,2.5,7,8.9,7.1v2.9c-5.6-0.4-10.5-0.7-14.4-0.7c-3.7,0-8.1,0.1-13.9,0.7V311c6.3-0.1,8.4-1.8,8.4-6.8
	c0-0.1,0-1,0-2.2v-32.9c0-8-1.1-10.6-7.9-10.6c-0.4,0-0.7,0-1.1,0v-2.7c4.9,0,10.6-1.9,17.5-5.2c1,4.1,1.5,8.5,1.5,12.6
	c0,0.6,0.1,1.1,0,1.2c3.3-7.5,11.1-12.7,19.7-12.7c12.4,0,16.5,8.9,16.5,12.9C423.7,259.4,430.2,251.9,441.5,251.9"/>
</svg>