<?xml version="1.0" standalone="no"?>
<!DOCTYPE svg PUBLIC "-//W3C//DTD SVG 20010904//EN"
 "http://www.w3.org/TR/2001/REC-SVG-20010904/DTD/svg10.dtd">
<svg version="1.0" xmlns="http://www.w3.org/2000/svg"
 width="500.000000pt" height="500.000000pt" viewBox="0 0 500.000000 500.000000"
 preserveAspectRatio="xMidYMid meet">

<g transform="translate(0.000000,500.000000) scale(0.100000,-0.100000)"
fill="#6F2568" stroke="none">
<path d="M2120 4338 c-461 -23 -731 -54 -982 -114 -82 -19 -137 -63 -166 -131
-43 -102 -82 -447 -89 -788 l-6 -269 30 25 c32 27 183 173 520 504 118 116
219 212 224 214 6 1 173 -160 371 -358 198 -199 361 -360 362 -359 5 8 -14
582 -24 728 -12 189 -37 470 -45 516 -7 40 -13 41 -195 32z m-13 -120 c14 -18
24 -64 26 -120 1 -41 -3 -52 -31 -81 -18 -18 -32 -41 -32 -50 0 -24 50 -147
60 -147 16 0 17 25 3 54 -10 18 -13 42 -9 65 4 20 7 47 9 61 2 19 8 25 25 24
25 -1 26 0 12 26 -17 32 10 36 37 6 18 -22 21 -31 13 -47 -6 -11 -8 -23 -5
-28 8 -14 -5 -41 -20 -41 -7 0 -15 6 -18 13 -4 9 -7 9 -18 -1 -11 -10 -9 -15
10 -28 20 -15 22 -22 16 -63 -8 -54 -20 -71 -49 -71 -11 -1 -32 -10 -45 -21
-21 -17 -23 -23 -13 -40 7 -10 12 -32 12 -49 0 -24 -5 -31 -27 -36 -16 -4 -33
-13 -40 -21 -20 -25 -60 -8 -68 28 -8 36 8 53 37 38 26 -14 36 16 13 41 -12
13 -15 27 -11 45 5 19 3 25 -10 25 -10 0 -14 -5 -10 -15 11 -30 -91 -68 -119
-45 -20 17 -19 69 1 77 8 3 20 1 27 -6 22 -22 36 -12 34 25 -3 47 19 64 63 47
16 -6 30 -7 30 -2 0 5 -4 9 -9 9 -5 0 -17 7 -26 16 -13 14 -20 14 -45 4 -16
-7 -37 -9 -46 -6 -10 4 -25 -1 -35 -10 -17 -16 -19 -15 -29 10 -5 15 -7 38 -4
52 6 24 28 32 39 14 10 -17 58 -11 85 10 26 20 10 29 -19 11 -16 -10 -51 7
-51 25 0 7 -11 15 -25 18 -31 8 -34 47 -6 77 21 23 41 18 41 -10 0 -24 56 -49
73 -32 6 6 21 11 33 11 13 0 26 5 29 10 3 6 -3 10 -14 10 -12 0 -21 4 -21 8 0
4 -12 8 -27 7 -22 0 -29 5 -31 23 -4 26 9 28 44 6 19 -13 28 -14 37 -5 8 8 6
11 -11 11 -35 0 -27 33 11 48 17 7 39 17 47 22 22 13 46 12 57 -2z m-736 -51
c23 -17 39 -75 35 -125 -2 -32 -11 -49 -35 -73 -27 -26 -31 -35 -26 -61 10
-44 44 -118 55 -118 13 0 12 10 -2 63 -7 26 -8 52 -3 63 5 10 9 30 9 44 1 20
6 25 24 23 19 -3 21 0 12 16 -13 26 -13 31 3 31 30 0 48 -35 41 -79 -7 -46
-18 -58 -38 -42 -23 19 -26 -1 -4 -31 18 -26 19 -34 9 -69 -11 -37 -42 -66
-60 -55 -4 3 -18 -5 -31 -19 -20 -21 -21 -26 -7 -44 22 -32 10 -71 -24 -78
-15 -3 -30 -11 -33 -19 -6 -16 -36 -19 -36 -4 0 6 -7 10 -15 10 -10 0 -15 10
-15 31 0 28 3 31 24 27 38 -8 54 7 33 30 -9 10 -17 33 -17 50 0 18 -4 32 -10
32 -5 0 -10 -10 -10 -23 0 -23 -34 -52 -50 -42 -5 3 -18 0 -29 -7 -18 -11 -23
-10 -35 7 -9 11 -16 33 -16 49 0 24 3 28 23 23 12 -2 30 -8 41 -12 16 -7 17
-5 11 24 -4 20 -2 37 5 46 15 18 52 19 68 3 6 -6 14 -9 17 -6 4 3 -7 15 -23
27 -25 17 -35 19 -59 10 -17 -5 -34 -9 -39 -7 -5 1 -19 -3 -32 -10 -20 -12
-23 -10 -32 13 -18 46 12 102 35 65 3 -5 19 -10 34 -10 30 0 70 24 59 36 -4 4
-14 1 -23 -6 -16 -13 -39 -2 -58 28 -4 6 -17 12 -27 12 -15 0 -20 7 -20 27 0
50 55 86 62 41 2 -13 15 -29 31 -36 25 -12 31 -12 46 2 10 9 25 16 34 16 9 0
17 5 17 10 0 6 -7 10 -15 10 -8 0 -15 5 -15 10 0 6 5 10 10 10 6 0 10 5 10 11
0 6 -7 9 -15 5 -8 -3 -15 -4 -15 -2 0 3 -3 11 -6 19 -4 11 6 20 33 32 21 9 45
21 53 25 20 12 22 11 41 -3z m-137 -74 c8 -19 -8 -38 -23 -29 -16 10 -13 46 3
46 8 0 17 -8 20 -17z"/>
<path d="M2696 4329 c-9 -27 -36 -316 -51 -549 -9 -129 -17 -383 -18 -565 l-2
-330 35 -5 c35 -5 37 -8 57 -79 3 -12 38 -13 211 -7 538 17 1160 61 1181 82
12 11 12 501 1 664 -13 201 -35 391 -55 485 -17 79 -54 139 -104 169 -96 56
-642 130 -1058 143 -160 5 -193 4 -197 -8z"/>
<path d="M1500 3457 c-80 -78 -248 -242 -373 -364 l-229 -222 34 -5 c67 -11
417 -46 568 -56 85 -6 298 -13 472 -17 l316 -6 12 42 c9 35 16 43 41 48 30 6
24 12 -327 364 -198 198 -361 359 -364 359 -3 0 -70 -64 -150 -143z m230 -12
c7 -8 19 -41 26 -72 14 -61 10 -75 -37 -135 -21 -26 -21 -27 -4 -82 10 -31 23
-64 31 -73 19 -27 30 -6 15 30 -15 34 -16 60 -5 120 6 36 8 38 33 32 21 -5 24
-4 14 6 -14 15 -18 49 -5 49 5 0 19 -11 32 -24 16 -18 20 -30 15 -43 -4 -10
-7 -28 -6 -40 3 -26 -15 -39 -34 -23 -22 19 -26 -5 -4 -29 15 -16 19 -29 14
-49 -10 -44 -34 -72 -59 -72 -12 0 -31 -9 -42 -21 -15 -16 -16 -24 -6 -39 22
-35 15 -69 -15 -76 -16 -4 -33 -14 -38 -21 -17 -23 -62 -6 -68 25 -7 37 0 45
34 38 34 -7 47 9 25 33 -9 10 -16 30 -16 44 0 15 -4 27 -10 27 -5 0 -10 -8
-10 -18 0 -19 -36 -46 -50 -37 -5 3 -18 0 -29 -6 -25 -16 -51 8 -51 46 0 28
25 44 43 26 21 -21 37 -13 31 17 -6 31 19 67 40 59 6 -2 22 -7 36 -11 24 -7
24 -7 5 8 -11 8 -26 20 -33 26 -9 8 -18 7 -34 -4 -12 -9 -32 -13 -44 -10 -12
3 -25 1 -28 -5 -19 -30 -50 13 -40 54 6 24 44 37 44 15 0 -5 9 -10 20 -10 24
0 70 21 70 32 0 11 -14 10 -27 -3 -13 -13 -53 8 -53 28 0 6 -10 13 -22 15 -29
4 -34 31 -11 62 23 32 41 33 49 1 7 -28 49 -44 67 -26 6 6 21 11 34 11 13 0
23 4 23 10 0 5 -6 7 -14 4 -8 -3 -17 -1 -20 4 -3 5 -17 7 -31 4 -22 -4 -25 -1
-25 22 0 16 5 26 15 26 8 0 15 -4 15 -10 0 -5 4 -10 9 -10 5 0 7 9 4 20 -4 15
3 23 33 36 22 9 46 20 54 25 22 11 26 11 40 -6z"/>
<path d="M1625 3370 c3 -5 8 -10 11 -10 2 0 4 5 4 10 0 6 -5 10 -11 10 -5 0
-7 -4 -4 -10z"/>
<path d="M1990 2543 c-228 -4 -565 -23 -765 -44 -269 -27 -275 -28 -275 -49 0
-48 77 -277 137 -407 204 -445 521 -871 851 -1143 77 -64 310 -220 328 -220
18 0 21 15 44 255 45 482 70 930 70 1271 l0 242 -35 6 c-35 7 -38 12 -47 71
-4 22 -28 24 -308 18z"/>
<path d="M2716 2538 c-16 -63 -23 -72 -56 -83 l-35 -12 -3 -109 c-5 -142 14
-576 38 -924 20 -281 56 -677 66 -718 l5 -23 37 22 c203 122 345 233 502 395
344 354 639 834 756 1233 43 146 43 148 -3 155 -227 35 -830 71 -1281 76 -12
0 -24 -6 -26 -12z"/>
</g>
</svg>
