<svg xmlns="http://www.w3.org/2000/svg" xmlns:xlink="http://www.w3.org/1999/xlink" width="500"
    zoomAndPan="magnify" viewBox="0 0 375 374.999991" height="500"
    preserveAspectRatio="xMidYMid slice" version="1.0">
    <defs>
        <g />
        <clipPath id="a30fc20015">
            <path
                d="M 78.402344 78.394531 L 296.652344 78.394531 L 296.652344 296.640625 L 78.402344 296.640625 Z M 78.402344 78.394531 "
                clip-rule="nonzero" />
        </clipPath>
    </defs>
    <g clip-path="url(#a30fc20015)">
        <path stroke-linecap="butt"
            transform="matrix(0.750201, 0, 0, 0.750121, 78.400495, 78.395028)" fill="none"
            stroke-linejoin="miter"
            d="M 0.00246494 -0.000661763 L 290.924331 -0.000661763 L 290.924331 290.94729 L 0.00246494 290.94729 L 0.00246494 -0.000661763 "
            stroke="currentcolor" stroke-width="8" stroke-opacity="1" stroke-miterlimit="4" />
    </g>
    <g fill="currentcolor" fill-opacity="1">
        <g transform="translate(126.041012, 235.124985)">
            <g>
                <path
                    d="M 26.484375 -75.015625 L 27.109375 -66.625 C 32.421875 -73.144531 39.609375 -76.40625 48.671875 -76.40625 C 58.328125 -76.40625 64.957031 -72.585938 68.5625 -64.953125 C 73.832031 -72.585938 81.34375 -76.40625 91.09375 -76.40625 C 99.226562 -76.40625 105.28125 -74.035156 109.25 -69.296875 C 113.226562 -64.554688 115.21875 -57.425781 115.21875 -47.90625 L 115.21875 0 L 95.125 0 L 95.125 -47.84375 C 95.125 -52.09375 94.289062 -55.195312 92.625 -57.15625 C 90.957031 -59.125 88.019531 -60.109375 83.8125 -60.109375 C 77.8125 -60.109375 73.65625 -57.242188 71.34375 -51.515625 L 71.40625 0 L 51.375 0 L 51.375 -47.765625 C 51.375 -52.109375 50.515625 -55.25 48.796875 -57.1875 C 47.085938 -59.132812 44.179688 -60.109375 40.078125 -60.109375 C 34.390625 -60.109375 30.273438 -57.75 27.734375 -53.03125 L 27.734375 0 L 7.703125 0 L 7.703125 -75.015625 Z M 26.484375 -75.015625 " />
            </g>
        </g>
    </g>
</svg>