<svg xmlns="http://www.w3.org/2000/svg" xmlns:xlink="http://www.w3.org/1999/xlink" width="500"
    zoomAndPan="magnify" viewBox="0 0 375 374.999991" height="500"
    preserveAspectRatio="xMidYMid meet" version="1.0">
    <defs>
        
        <clipPath id="2ffb7c2ef4">
            <path
                d="M 43.933594 43.933594 L 331.183594 43.933594 L 331.183594 331.183594 L 43.933594 331.183594 Z M 43.933594 43.933594 "
                clip-rule="nonzero" />
        </clipPath>
    </defs>
    <g clip-path="url(#2ffb7c2ef4)">
        <path stroke-linecap="butt"
            transform="matrix(0.750337, 0, 0, 0.750337, 43.933823, 43.933819)" fill="none"
            stroke-linejoin="miter"
            d="M -0.000305816 -0.000299819 L 382.827857 -0.000299819 L 382.827857 382.827863 L -0.000305816 382.827863 L -0.000305816 -0.000299819 "
            stroke="currentcolor" stroke-width="8" stroke-opacity="1" stroke-miterlimit="4" />
    </g>
    <path fill="currentcolor"
        d="M 59.707031 94.875 L 145.207031 94.875 L 145.207031 279.375 L 59.707031 279.375 L 59.707031 94.875 "
        fill-opacity="1" fill-rule="nonzero" />
    <g fill="#ffffff" fill-opacity="1">
        <g transform="translate(59.707033, 239.624984)">
            <g>
                <path
                    d="M 12.0625 -14.0625 L 62.46875 -42.59375 L 62.46875 -43.734375 L 12.0625 -72.265625 L 12.0625 -84.34375 L 73.125 -48.984375 L 73.125 -37.625 L 12.0625 -2.265625 Z M 12.0625 -14.0625 " />
            </g>
        </g>
    </g>
    <g fill="currentcolor" fill-opacity="1">
        <g transform="translate(144.90234, 239.624984)">
            <g>
                <path
                    d="M 64.609375 -49.6875 L 64.609375 -81.078125 L 63.46875 -81.078125 L 42.59375 -30.09375 L 21.71875 -81.078125 L 20.59375 -81.078125 L 20.59375 0 L 9.65625 0 L 9.65625 -99.109375 L 24.984375 -99.109375 L 42.453125 -55.375 L 43.3125 -55.375 L 60.765625 -99.109375 L 75.53125 -99.109375 L 75.53125 0 L 64.609375 0 Z M 64.609375 -49.6875 " />
            </g>
        </g>
    </g>
    <g fill="currentcolor" fill-opacity="1">
        <g transform="translate(230.085962, 239.624984)">
            <g>
                <path
                    d="M 8.515625 24 L 8.515625 13.484375 L 76.671875 13.484375 L 76.671875 24 Z M 8.515625 24 " />
            </g>
        </g>
    </g>
</svg>