<svg xmlns="http://www.w3.org/2000/svg" xmlns:xlink="http://www.w3.org/1999/xlink" width="500"
    zoomAndPan="magnify" viewBox="0 0 375 374.999991" height="500"
    preserveAspectRatio="xMidYMid slice" version="1.0">
    <defs>
        
        <clipPath id="d44b442f02">
            <path
                d="M 13.316406 139.503906 L 113.066406 139.503906 L 113.066406 235.503906 L 13.316406 235.503906 Z M 13.316406 139.503906 "
                clip-rule="nonzero" />
        </clipPath>
    </defs>
    <g clip-path="url(#d44b442f02)">
        <path stroke-linecap="butt"
            transform="matrix(0.749912, 0, 0, 0.750092, 13.314993, 139.502657)" fill="none"
            stroke-linejoin="miter"
            d="M 0.00188468 0.00166514 L 133.017523 0.00166514 L 133.017523 127.986049 L 0.00188468 127.986049 L 0.00188468 0.00166514 "
            stroke="currentcolor" stroke-width="8" stroke-opacity="1" stroke-miterlimit="4" />
    </g>
    <g fill="currentcolor" fill-opacity="1">
        <g transform="translate(33.335386, 209.999986)">
            <g>
                <path
                    d="M 12.875 -36.453125 L 13.171875 -32.375 C 15.753906 -35.539062 19.25 -37.125 23.65625 -37.125 C 28.34375 -37.125 31.566406 -35.269531 33.328125 -31.5625 C 35.878906 -35.269531 39.523438 -37.125 44.265625 -37.125 C 48.222656 -37.125 51.164062 -35.972656 53.09375 -33.671875 C 55.03125 -31.367188 56 -27.90625 56 -23.28125 L 56 0 L 46.21875 0 L 46.21875 -23.25 C 46.21875 -25.3125 45.8125 -26.816406 45 -27.765625 C 44.195312 -28.722656 42.773438 -29.203125 40.734375 -29.203125 C 37.816406 -29.203125 35.796875 -27.8125 34.671875 -25.03125 L 34.703125 0 L 24.96875 0 L 24.96875 -23.21875 C 24.96875 -25.320312 24.550781 -26.84375 23.71875 -27.78125 C 22.882812 -28.726562 21.46875 -29.203125 19.46875 -29.203125 C 16.707031 -29.203125 14.710938 -28.0625 13.484375 -25.78125 L 13.484375 0 L 3.734375 0 L 3.734375 -36.453125 Z M 12.875 -36.453125 " />
            </g>
        </g>
    </g>
    <g fill="currentcolor" fill-opacity="1">
        <g transform="translate(118.638594, 212.249986)">
            <g>
                <path
                    d="M 6.125 -37.40625 L 12.234375 -37.40625 L 12.234375 -13.1875 C 12.234375 -7.519531 14.929688 -4.6875 20.328125 -4.6875 C 25.816406 -4.6875 28.5625 -7.519531 28.5625 -13.1875 L 28.5625 -37.40625 L 34.6875 -37.40625 L 34.6875 -13.1875 C 34.6875 -8.75 33.445312 -5.328125 30.96875 -2.921875 C 28.5 -0.515625 24.953125 0.6875 20.328125 0.6875 C 15.796875 0.6875 12.296875 -0.523438 9.828125 -2.953125 C 7.359375 -5.378906 6.125 -8.789062 6.125 -13.1875 Z M 6.125 -37.40625 " />
            </g>
        </g>
    </g>
    <g fill="currentcolor" fill-opacity="1">
        <g transform="translate(159.433917, 212.249986)">
            <g>
                <path
                    d="M 5.984375 0 L 5.984375 -37.40625 L 11.765625 -37.40625 L 11.765625 -30.9375 L 12.3125 -30.9375 C 12.894531 -33.207031 14.082031 -34.960938 15.875 -36.203125 C 17.664062 -37.453125 19.898438 -38.078125 22.578125 -38.078125 C 24.429688 -38.078125 26.117188 -37.757812 27.640625 -37.125 C 29.160156 -36.488281 30.453125 -35.59375 31.515625 -34.4375 C 32.578125 -33.28125 33.40625 -31.894531 34 -30.28125 C 34.59375 -28.675781 34.890625 -26.878906 34.890625 -24.890625 L 34.890625 0 L 28.765625 0 L 28.765625 -23.875 C 28.765625 -26.726562 28.035156 -28.945312 26.578125 -30.53125 C 25.128906 -32.113281 23.113281 -32.90625 20.53125 -32.90625 C 17.945312 -32.90625 15.894531 -32.054688 14.375 -30.359375 C 12.863281 -28.660156 12.109375 -26.359375 12.109375 -23.453125 L 12.109375 0 Z M 5.984375 0 " />
            </g>
        </g>
    </g>
    <g fill="currentcolor" fill-opacity="1">
        <g transform="translate(200.229241, 212.249986)">
            <g>
                <path
                    d="M 4.28125 -10.875 C 4.28125 -12.644531 4.585938 -14.242188 5.203125 -15.671875 C 5.816406 -17.097656 6.703125 -18.3125 7.859375 -19.3125 C 9.015625 -20.3125 10.40625 -21.082031 12.03125 -21.625 C 13.664062 -22.164062 15.503906 -22.4375 17.546875 -22.4375 L 28.703125 -22.4375 L 28.703125 -25.5 C 28.703125 -27.8125 27.941406 -29.613281 26.421875 -30.90625 C 24.898438 -32.195312 22.710938 -32.84375 19.859375 -32.84375 C 17.773438 -32.84375 15.992188 -32.457031 14.515625 -31.6875 C 13.046875 -30.914062 12.0625 -29.847656 11.5625 -28.484375 L 5.4375 -28.484375 C 6.070312 -31.429688 7.691406 -33.765625 10.296875 -35.484375 C 12.910156 -37.210938 16.140625 -38.078125 19.984375 -38.078125 C 24.609375 -38.078125 28.234375 -37 30.859375 -34.84375 C 33.492188 -32.695312 34.8125 -29.695312 34.8125 -25.84375 L 34.8125 0 L 29.234375 0 L 29.234375 -7.140625 L 28.703125 -7.140625 C 28.109375 -4.734375 26.722656 -2.828125 24.546875 -1.421875 C 22.367188 -0.015625 19.71875 0.6875 16.59375 0.6875 C 12.832031 0.6875 9.835938 -0.351562 7.609375 -2.4375 C 5.390625 -4.53125 4.28125 -7.34375 4.28125 -10.875 Z M 17.953125 -4.359375 C 19.492188 -4.359375 20.921875 -4.5625 22.234375 -4.96875 C 23.546875 -5.375 24.675781 -5.945312 25.625 -6.6875 C 26.582031 -7.4375 27.332031 -8.3125 27.875 -9.3125 C 28.425781 -10.3125 28.703125 -11.398438 28.703125 -12.578125 L 28.703125 -17.6875 L 17.6875 -17.6875 C 15.414062 -17.6875 13.632812 -17.09375 12.34375 -15.90625 C 11.050781 -14.726562 10.40625 -13.097656 10.40625 -11.015625 C 10.40625 -8.929688 11.0625 -7.300781 12.375 -6.125 C 13.6875 -4.945312 15.546875 -4.359375 17.953125 -4.359375 Z M 17.953125 -4.359375 " />
            </g>
        </g>
    </g>
    <g fill="currentcolor" fill-opacity="1">
        <g transform="translate(241.024564, 212.249986)">
            <g>
                <path
                    d="M 4.078125 -37.40625 L 14.953125 -37.40625 L 14.953125 -48.953125 L 21.078125 -48.953125 L 21.078125 -37.40625 L 35.703125 -37.40625 L 35.703125 -31.828125 L 21.078125 -31.828125 L 21.078125 -9.65625 C 21.078125 -8.382812 21.472656 -7.382812 22.265625 -6.65625 C 23.054688 -5.9375 24.132812 -5.578125 25.5 -5.578125 L 35.015625 -5.578125 L 35.015625 0 L 25.5 0 C 22.28125 0 19.71875 -0.878906 17.8125 -2.640625 C 15.90625 -4.410156 14.953125 -6.75 14.953125 -9.65625 L 14.953125 -31.828125 L 4.078125 -31.828125 Z M 4.078125 -37.40625 " />
            </g>
        </g>
    </g>
    <g fill="currentcolor" fill-opacity="1">
        <g transform="translate(281.819887, 212.249986)">
            <g>
                <path
                    d="M 19.375 0.6875 C 15.4375 0.6875 12.1875 -0.207031 9.625 -2 C 7.0625 -3.789062 5.597656 -6.1875 5.234375 -9.1875 L 11.703125 -9.1875 C 11.972656 -7.863281 12.804688 -6.796875 14.203125 -5.984375 C 15.609375 -5.171875 17.332031 -4.765625 19.375 -4.765625 L 21.28125 -4.765625 C 23.726562 -4.765625 25.628906 -5.269531 26.984375 -6.28125 C 28.347656 -7.300781 29.03125 -8.675781 29.03125 -10.40625 C 29.03125 -13.351562 26.945312 -15.144531 22.78125 -15.78125 L 17.140625 -16.59375 C 13.460938 -17.132812 10.71875 -18.289062 8.90625 -20.0625 C 7.09375 -21.832031 6.1875 -24.300781 6.1875 -27.46875 C 6.1875 -30.820312 7.375 -33.425781 9.75 -35.28125 C 12.132812 -37.144531 15.457031 -38.078125 19.71875 -38.078125 L 21.625 -38.078125 C 23.4375 -38.078125 25.113281 -37.847656 26.65625 -37.390625 C 28.195312 -36.941406 29.554688 -36.296875 30.734375 -35.453125 C 31.910156 -34.617188 32.875 -33.625 33.625 -32.46875 C 34.375 -31.3125 34.863281 -30.03125 35.09375 -28.625 L 28.625 -28.625 C 28.351562 -29.800781 27.582031 -30.765625 26.3125 -31.515625 C 25.039062 -32.265625 23.476562 -32.640625 21.625 -32.640625 L 19.71875 -32.640625 C 17.40625 -32.640625 15.601562 -32.1875 14.3125 -31.28125 C 13.019531 -30.375 12.375 -29.015625 12.375 -27.203125 C 12.375 -25.753906 12.816406 -24.65625 13.703125 -23.90625 C 14.585938 -23.15625 16.023438 -22.644531 18.015625 -22.375 L 23.65625 -21.5625 C 27.695312 -20.96875 30.632812 -19.785156 32.46875 -18.015625 C 34.300781 -16.253906 35.21875 -13.738281 35.21875 -10.46875 C 35.21875 -6.976562 34.003906 -4.242188 31.578125 -2.265625 C 29.160156 -0.296875 25.726562 0.6875 21.28125 0.6875 Z M 19.375 0.6875 " />
            </g>
        </g>
    </g>
    <g fill="currentcolor" fill-opacity="1">
        <g transform="translate(322.61521, 212.249986)">
            <g>
                <path
                    d="M 6.453125 0 L 6.453125 -5.578125 L 20.0625 -5.578125 L 20.0625 -31.828125 L 8.15625 -31.828125 L 8.15625 -37.40625 L 26.1875 -37.40625 L 26.1875 -5.578125 L 37.40625 -5.578125 L 37.40625 0 Z M 21.421875 -52.015625 L 22.78125 -52.015625 C 24.09375 -52.015625 25.15625 -51.628906 25.96875 -50.859375 C 26.789062 -50.085938 27.203125 -49.09375 27.203125 -47.875 C 27.203125 -46.644531 26.789062 -45.664062 25.96875 -44.9375 C 25.15625 -44.21875 24.09375 -43.859375 22.78125 -43.859375 L 21.421875 -43.859375 C 20.109375 -43.859375 19.039062 -44.207031 18.21875 -44.90625 C 17.40625 -45.613281 17 -46.601562 17 -47.875 C 17 -49.09375 17.40625 -50.085938 18.21875 -50.859375 C 19.039062 -51.628906 20.109375 -52.015625 21.421875 -52.015625 Z M 21.421875 -52.015625 " />
            </g>
        </g>
    </g>
</svg>